<?xml version="1.0" encoding="utf-8"?>
<!-- Generator: Adobe Illustrator 25.0.0, SVG Export Plug-In . SVG Version: 6.00 Build 0)  -->
<svg version="1.1" id="Layer_1"
  xmlns="http://www.w3.org/2000/svg"
  xmlns:xlink="http://www.w3.org/1999/xlink" x="0px" y="0px" viewBox="0 0 70.9 70.9" style="enable-background:new 0 0 70.9 70.9;" xml:space="preserve">
  <style type="text/css">
	.st0{fill-rule:evenodd;clip-rule:evenodd;fill:#FF0000;}
  </style>
  <g id="Layer_x0020_1">
    <path class="st0" d="M57.6,43.6v8.9c0,2.8-3.8,5.1-8.5,5.1H17.3c-4.7,0-4-2.3-4-5.1v-3.6h28.5c1.6,0,2.9-0.8,2.9-1.7v-5.6
		c0-1-1.3-1.7-2.9-1.7H26.6v-8.7V31h15.3c1.6,0,2.9-0.8,2.9-1.7v-5.6c0-1-1.3-1.7-2.9-1.7H13.3v-3.6c0-2.8-1-5.1,3.7-5.1h32.2
		c4.7,0,8.5,2.3,8.5,5.1v8.7c0.1,2.3-0.4,3.4-1.8,4c-1.9,0.8-2.5,2.1-2.5,3.1v2.6c0,1.8,0.9,2.5,2.5,3.3
		C57.3,40.8,57.6,42,57.6,43.6L57.6,43.6z"/>
  </g>
</svg>
