<?xml version="1.0" encoding="utf-8"?>
<!-- Generator: Adobe Illustrator 25.0.0, SVG Export Plug-In . SVG Version: 6.00 Build 0)  -->
<svg version="1.1" id="Layer_1"
  xmlns="http://www.w3.org/2000/svg"
  xmlns:xlink="http://www.w3.org/1999/xlink" x="0px" y="0px" viewBox="0 0 70.9 70.9" style="enable-background:new 0 0 70.9 70.9;" xml:space="preserve">
  <style type="text/css">
	.st0{fill-rule:evenodd;clip-rule:evenodd;fill:#808080;}
  </style>
  <g id="Layer_x0020_1">
    <path class="st0" d="M29.4,48.6h12.4c1.6,0,2.4-0.8,2.4-1.7v-5.5c0-1-0.8-1.6-2.4-1.6l-12.4,0c-1.8-0.1-2.9,0.4-2.7,2v4.9
		C26.6,48.1,27.5,48.7,29.4,48.6z M57.6,43.6v7.9c0,4.7-3.6,6.1-8.5,6.1H19.5c-4.7,0-6.2-2.8-6.2-5.6v-0.3h0l0.1-9.6
		c0-3.1,0.7-4.3,4.2-4.1c1.4-0.2,1.9-4.6,0.1-4.8c-4.8-0.2-4.4-3.3-4.4-6.5l0-8.2c-0.1-2.5,1.8-5,5.7-5l25.4-0.1v0h9
		c2.8,0.2,4.2,1.8,4.2,4.8l0,9.9c0,3.6-0.4,4.9-3.9,5c-1.6,0-1.5,4.9-0.1,4.8c4.2,0.2,4,3.3,4,3.6C57.6,41.7,57.6,42.1,57.6,43.6
		L57.6,43.6z M29.4,30.8h12.4c1.6,0,2.4-0.8,2.4-1.7v-5.5c0-1-0.8-1.6-2.4-1.6l-12.4,0c-1.8-0.1-2.9,0.4-2.7,2v4.9
		C26.6,30.3,27.5,30.9,29.4,30.8z"/>
  </g>
</svg>
