<?xml version="1.0" encoding="utf-8"?>
<!-- Generator: Adobe Illustrator 25.0.0, SVG Export Plug-In . SVG Version: 6.00 Build 0)  -->
<svg version="1.1" id="Layer_1"
  xmlns="http://www.w3.org/2000/svg"
  xmlns:xlink="http://www.w3.org/1999/xlink" x="0px" y="0px" viewBox="0 0 70.9 70.9" style="enable-background:new 0 0 70.9 70.9;" xml:space="preserve">
  <style type="text/css">
	.st0{fill-rule:evenodd;clip-rule:evenodd;fill:#800000;}
  </style>
  <g id="Layer_x0020_1">
    <path class="st0" d="M57.6,43.6v9.9c0,3.8-3.6,4.1-8.5,4.1H17.3c-4.7,0-4-2.3-4-5.1v-3.6h28.5c1.6,0,2.4-0.8,2.4-1.7v-5.6
		c0-1-0.8-1.6-2.4-1.6l-28.5,0l0-26.5l44.2-0.1l0,2.3c0.2,5.4-1.3,6.6-5.4,6.7l-25.8,0l0,8.9l22.8-0.1c3.8,0,8.3-0.2,8.4,4.1
		C57.6,37,57.6,41.9,57.6,43.6L57.6,43.6z"/>
  </g>
</svg>
