<?xml version="1.0" encoding="utf-8"?>
<!-- Generator: Adobe Illustrator 25.0.0, SVG Export Plug-In . SVG Version: 6.00 Build 0)  -->
<svg version="1.1" id="Layer_1"
  xmlns="http://www.w3.org/2000/svg"
  xmlns:xlink="http://www.w3.org/1999/xlink" x="0px" y="0px" viewBox="0 0 70.9 70.9" style="enable-background:new 0 0 70.9 70.9;" xml:space="preserve">
  <style type="text/css">
	.st0{display:none;fill-rule:evenodd;clip-rule:evenodd;fill:#CCCCCC;}
	.st1{display:none;fill-rule:evenodd;clip-rule:evenodd;fill:#FFFFFF;}
	.st2{display:none;fill-rule:evenodd;clip-rule:evenodd;fill:#808080;}
	.st3{display:none;fill-rule:evenodd;clip-rule:evenodd;fill:#C6C6C6;}
	.st4{fill-rule:evenodd;clip-rule:evenodd;stroke:#000000;stroke-width:0.216;stroke-miterlimit:253.6982;}
	.st5{fill-rule:evenodd;clip-rule:evenodd;}
	.st6{fill-rule:evenodd;clip-rule:evenodd;fill:url(#SVGID_1_);}
  </style>
  <g id="Layer_2_1_">
    <rect x="0" y="0" class="st0" width="70.9" height="70.9"/>
    <polygon class="st1" points="0,0 70.9,0 45.7,45.7 0,70.9 	"/>
    <polygon class="st2" points="70.9,0 70.9,70.9 0,70.9 	"/>
    <rect x="8.6" y="8.6" class="st3" width="53.7" height="53.7"/>
    <rect x="36.9" y="32.6" class="st4" width="4.1" height="14.9"/>
    <path class="st5" d="M29.7,44.5h13.9c1.3,0,2.4,1.1,2.4,2.4v2.8c0,1.3-1.1,2.4-2.4,2.4H29.7c-1.3,0-2.4-1.1-2.4-2.4v-2.8
		C27.3,45.6,28.3,44.5,29.7,44.5z"/>
    <path class="st5" d="M21.6,49.4h30.1c1.4,0,2.5,1.1,2.5,2.5v4c0,1.4-1.1,2.5-2.5,2.5H21.6c-1.4,0-2.5-1.1-2.5-2.5v-4
		C19.1,50.5,20.2,49.4,21.6,49.4z"/>

    <linearGradient id="SVGID_1_" gradientUnits="userSpaceOnUse" x1="-318.5716" y1="304.1288" x2="-318.2913" y2="304.0788" gradientTransform="matrix(63.4245 0 0 -63.4245 20225.543 19310.2363)">
      <stop offset="0" style="stop-color:#E70030"/>
      <stop offset="0.3882" style="stop-color:#FF4848"/>
      <stop offset="0.6196" style="stop-color:#FF2F2F"/>
      <stop offset="0.7882" style="stop-color:#FF1C1C"/>
      <stop offset="0.9686" style="stop-color:#C01515"/>
      <stop offset="1" style="stop-color:#A10D0D"/>
    </linearGradient>
    <path class="st6" d="M41.4,12.8v24c-4.1-9.5-20.6-0.6-25.3-19c0,0,5.4,1.6,11.4-1.3C33.6,13.7,38.1,14.5,41.4,12.8L41.4,12.8z"/>
  </g>
</svg>
