<?xml version="1.0" encoding="utf-8"?>
<!-- Generator: Adobe Illustrator 25.0.0, SVG Export Plug-In . SVG Version: 6.00 Build 0)  -->
<svg version="1.1" id="Layer_1"
  xmlns="http://www.w3.org/2000/svg"
  xmlns:xlink="http://www.w3.org/1999/xlink" x="0px" y="0px" viewBox="0 0 70.9 70.9" style="enable-background:new 0 0 70.9 70.9;" xml:space="preserve">
  <style type="text/css">
	.st0{fill-rule:evenodd;clip-rule:evenodd;fill:#008000;}
  </style>
  <g id="Layer_x0020_1">
    <path class="st0" d="M13.4,26.6h12.9v-4.3c5.4,0,10-0.1,15.4,0c1,0,4.3-0.6,4.2,2.9l0,1.7c-0.1,2.7-3.5,2.9-5.9,4
		c-17.7,5.4-26.4,8.1-26.4,11.6c-0.1,1.8-0.1,4.2-0.1,6l0,8.9l43.8,0.3l-0.1-8.7l-30.7-0.1l0-1.3c0.1-0.9-0.2-2.1,1-2.6
		c5.2-1.9,16.1-5.5,26.2-8.9c3.3-1.4,3.9-5.3,3.9-9.1l0-7.8c0-3.6-2-6-5.5-5.8l-33.7,0.1c-4.5,0.2-4.9,4.3-4.9,6.6L13.4,26.6
		L13.4,26.6z"/>
  </g>
</svg>
