<?xml version="1.0" encoding="utf-8"?>
<!-- Generator: Adobe Illustrator 25.0.0, SVG Export Plug-In . SVG Version: 6.00 Build 0)  -->
<svg version="1.1" id="Layer_1"
  xmlns="http://www.w3.org/2000/svg"
  xmlns:xlink="http://www.w3.org/1999/xlink" x="0px" y="0px" viewBox="0 0 70.9 70.9" style="enable-background:new 0 0 70.9 70.9;" xml:space="preserve">
  <style type="text/css">
	.st0{fill-rule:evenodd;clip-rule:evenodd;fill:#008080;}
  </style>
  <g id="Layer_x0020_1">
    <path class="st0" d="M57.6,43.6v7.9c0,4.7-3.6,6.1-8.5,6.1H19.5c-4.7,0-6.2-2.8-6.2-5.6v-0.3h0V34.5h0l0-16.1c-0.1-2.5,1.8-5,5.7-5
		l34.4-0.1l0,1.5c0.2,5.7-0.5,7.3-5.1,7.5l-21.5-0.1l0,8.9l22.4,0c4.7,0,8.3,1.1,8.4,5.4C57.6,38.3,57.6,41.9,57.6,43.6L57.6,43.6z
		 M26.6,48.9h0.1h15c1.6,0,2.4-0.8,2.4-1.7v-5.6c0-1-0.8-1.6-2.4-1.6l-15.2,0L26.6,48.9L26.6,48.9z"/>
  </g>
</svg>
